<svg xmlns="http://www.w3.org/2000/svg" width="42.586" height="42.586" viewBox="0 0 42.586 42.586">
  <g id="Grupo_16" data-name="Grupo 16" transform="translate(0.75 0.75)">
    <path id="Trazado_11" data-name="Trazado 11" d="M43.086,22.559A20.525,20.525,0,0,1,6.406,35.221,20.285,20.285,0,0,1,2,22.559a20.543,20.543,0,1,1,41.086,0Z" transform="translate(-2 -2)" fill="none" stroke="#53565a" stroke-width="1.5"/>
    <g id="Grupo_15" data-name="Grupo 15" transform="translate(4.406 6.665)">
      <g id="Grupo_14" data-name="Grupo 14">
        <path id="Trazado_12" data-name="Trazado 12" d="M47.808,48.981a20.522,20.522,0,0,1-32.308,0A37.564,37.564,0,0,1,27.15,45.62c-.131-.946-.261-1.925-.392-2.872a3.324,3.324,0,0,1-1.6-2.121l-.294-2.643a.694.694,0,0,1-.49.228.772.772,0,0,1-.848-.685L23.1,33.447a.772.772,0,0,1,.685-.848.729.729,0,0,1,.457.1c-.1-.783-.163-1.566-.261-2.35-.065-1.077-.587-3.916,1.469-5.744,2.97-2.9,9.529-2.9,12.5,0,2.056,1.828,1.534,4.667,1.469,5.744-.1.783-.163,1.566-.261,2.35a1.042,1.042,0,0,1,.457-.1.772.772,0,0,1,.685.848l-.424,4.079a.772.772,0,0,1-.848.685.858.858,0,0,1-.49-.228l-.294,2.643a3.215,3.215,0,0,1-1.6,2.121c-.131.946-.261,1.925-.424,2.872A37.694,37.694,0,0,1,47.808,48.981Z" transform="translate(-15.5 -22.425)" fill="#53565a"/>
      </g>
    </g>
  </g>
</svg>
