<svg xmlns="http://www.w3.org/2000/svg" viewBox="0 0 474.34 336.38"><defs><style>.cls-1{fill:#5b5c5e;}.cls-2{fill:#312e2a;}.cls-3{fill:#f6d43b;}.cls-4{fill:#d9dadc;}.cls-5{fill:#b8b9bb;}.cls-6{fill:#98999c;}.cls-7{fill:#7a7b7d;}</style></defs><title>logo-gs</title><g id="Capa_2" data-name="Capa 2"><g id="Layer_1" data-name="Layer 1"><path class="cls-1" d="M207.08,309.29c9,0,13.22,5.74,12,13.56-1.22,7.56-6.31,13-15.88,13h-9.5l4.22-26.6Zm-.42,4h-5.05l-3,18.69h4.86c6.27,0,10.22-3.53,11.17-9.61C215.63,316.47,212.93,313.24,206.66,313.24Z"/><path class="cls-1" d="M250.24,309.29l-.65,4h-14l-1.14,7.26h12.84l-.61,4H233.87l-1.18,7.49h14.17l-.61,4H227.71l4.22-26.6Z"/><path class="cls-1" d="M269.28,308.8a14.83,14.83,0,0,1,8.05,2.2l-.61,4a11.85,11.85,0,0,0-7.37-2.24c-3.31,0-5.66.91-6,3.27-.84,5.58,14.48,3.91,13,13.26-.87,5.47-5.81,7.11-10.75,7.11a18.41,18.41,0,0,1-9.42-2.39l.65-4.07a15.23,15.23,0,0,0,8.7,2.51c3.46,0,6-.8,6.42-3.31,1-6.12-14.32-4.29-12.92-13.45C259.75,310.89,264.57,308.8,269.28,308.8Z"/><path class="cls-1" d="M299,309.29c9,0,13.22,5.74,12,13.56-1.22,7.56-6.31,13-15.88,13h-9.5l4.22-26.6Zm-.42,4h-5.05l-3,18.69h4.86c6.27,0,10.22-3.53,11.17-9.61C307.51,316.47,304.81,313.24,298.54,313.24Z"/><path class="cls-1" d="M342.13,309.29l-.65,4h-14l-1.14,7.26H339.2l-.61,4H325.75l-1.18,7.49h14.17l-.61,4H319.6l4.22-26.6Z"/><path class="cls-1" d="M376.4,310.05,372.91,332h4.6l-.65,3.91H362.8l.65-3.91h5.17l2.77-17.48-5.47,1.94.65-4,6.65-2.39Z"/><path class="cls-1" d="M398.44,309.56c7.45,0,10.64,5.17,9.31,13.45-1.48,9.35-7.26,13.37-13.91,13.37a14.07,14.07,0,0,1-6.54-1.56l.57-3.8a11.26,11.26,0,0,0,5.81,1.52c4.07,0,7.87-2.05,9.46-8.05a15.52,15.52,0,0,1-7.52,1.94c-4.29,0-8.82-2.85-7.9-8.47S393.28,309.56,398.44,309.56Zm-6.38,8.55c-.53,3.5,2,4.56,4.9,4.56a12.07,12.07,0,0,0,6.84-2.28c.3-5.13-1.86-7.07-5.43-7.07C395.29,313.32,392.63,314.69,392.06,318.11Z"/><path class="cls-1" d="M430.78,309.56c7.75,0,10.83,6,9.61,13.68-1.18,7.41-5.55,13.15-13.49,13.15-7.71,0-10.79-6-9.57-13.68C418.51,315.26,422.88,309.56,430.78,309.56Zm-.23,4c-5.05,0-8,3.34-9,9.46-.91,5.89.72,9.46,5.55,9.46,5.09,0,8-3.34,9-9.46C437,317.08,435.42,313.51,430.55,313.51Z"/><path class="cls-1" d="M461.6,319.48c4.18,0,8.66,2.93,7.79,8.51s-5.51,8.4-10.68,8.4c-7.49,0-10.68-5.17-9.35-13.45,1.48-9.35,7.33-13.37,13.91-13.37a14,14,0,0,1,6.54,1.6l-.61,3.76a11.19,11.19,0,0,0-5.78-1.52c-3.91,0-7.83,2.05-9.42,8.05A15.34,15.34,0,0,1,461.6,319.48Zm3.46,8.28c.53-3.38-1.94-4.48-4.86-4.48a12.18,12.18,0,0,0-6.88,2.28c-.34,5.13,1.79,7.1,5.32,7.1C461.71,332.66,464.52,331.33,465.06,327.76Z"/><path class="cls-1" d="M39.08,164.45a26,26,0,0,1,12.42,2.82l-1,6.42c-2.58-2-6.6-2.94-10.86-2.94-8,0-17.58,4.26-19.32,15.48C18.44,198,27,201.77,34,201.77a16.88,16.88,0,0,0,6.78-1.26l2.52-15.84h6.78l-3.24,20.58A36.1,36.1,0,0,1,33.2,208c-11,0-22.26-6.78-19.74-22.62C15.8,170.75,28.52,164.45,39.08,164.45Z"/><path class="cls-1" d="M53,207.23l6.66-42H76.32c7.68,0,15.78,3.3,14.16,13.56-1.14,7.32-6.24,10.68-12.06,12L89,207.23H81.36l-10-15.72h-9l-2.52,15.72Zm10.38-21.78H73.5c4.68,0,9.24-1.86,10.14-7.2s-3.24-6.78-7.74-6.78H65.58Z"/><path class="cls-1" d="M132.62,165.23l-4.2,26.64c-2,12.24-10.62,16.14-19.92,16.14s-17.88-4.38-16-16.56l4.2-26.22h6.84l-4.14,26.28c-1.26,7.68,2.82,10.14,9.18,10.14,6.9,0,11.82-2.88,13.08-10.56l4.08-25.86Z"/><path class="cls-1" d="M155.2,165.23c8.82,0,17.16,3.36,15.42,14.22-1.62,10.44-9.84,13.38-19.8,13.38h-8.46l-2.28,14.4h-6.84l6.66-42Zm-.36,6.24h-9.06l-2.4,15.12h8.46c6.12,0,11-1.68,11.94-7.8S159.7,171.47,154.84,171.47Z"/><path class="cls-1" d="M192.7,208c-13.92,0-20.7-10.86-18.9-22.2,1.74-10.92,10.68-21.36,25.2-21.36,13.74,0,20.76,10.86,19,22.2C216.16,197.57,207.7,208,192.7,208Zm.42-6.42c10.32,0,16.62-7.2,17.94-15.48,1.2-7.44-2.46-15.24-12.48-15.24-10.32,0-16.56,7.2-17.88,15.48C179.5,193.79,183.16,201.59,193.12,201.59Z"/><path class="cls-2" d="M34.63,223.27c8.83,0,17.07,2.33,22.41,5.72l-2.42,15.81a31.63,31.63,0,0,0-19.4-6c-7,.1-10.09,1.94-10.28,4.75-.58,8.92,34.43,7.18,30.07,30.85-2.81,15.42-15,19.69-29.49,19.69-10.19,0-19-2.52-25.51-6.5l2.62-16.39A35.83,35.83,0,0,0,25,278.56c7,0,11.25-1.65,11.64-4.66C38.22,262.75,2.91,266,6.79,242.19,8.92,229.19,21.53,223.27,34.63,223.27Z"/><path class="cls-2" d="M104.86,292.63,102.63,282H74.5L69,292.63H50.15l37.44-67.9H107l15.91,67.9Zm-22.7-25.22H99.62l-3.69-19a41.86,41.86,0,0,1-.78-7.47,42.38,42.38,0,0,1-3,7.28Z"/><path class="cls-2" d="M148.44,224.73l-8.25,51.9h31l-2.52,16h-49l10.77-67.9Z"/><path class="cls-2" d="M202.37,224.73l-10.77,67.9H173.66l10.77-67.9Z"/><path class="cls-2" d="M198.56,292.63l10.77-67.9h14.94L247,263.33a91.89,91.89,0,0,1,1.16-11l4.37-27.65h17.95l-10.77,67.9H244.73l-22.6-38.51a71,71,0,0,1-1,10.09l-4.66,28.42Z"/><path class="cls-2" d="M311.11,292.63,308.88,282H280.75l-5.53,10.67H256.4l37.44-67.9h19.4l15.91,67.9Zm-22.7-25.22h17.46l-3.69-19a41.86,41.86,0,0,1-.78-7.47,42.38,42.38,0,0,1-3,7.28Z"/><path class="cls-2" d="M363.84,223.27c8.83,0,17.07,2.33,22.41,5.72l-2.42,15.81a31.63,31.63,0,0,0-19.4-6c-7,.1-10.09,1.94-10.28,4.75-.58,8.92,34.43,7.18,30.07,30.85-2.81,15.42-15,19.69-29.49,19.69-10.19,0-19-2.52-25.51-6.5l2.62-16.39a35.83,35.83,0,0,0,22.41,7.37c7,0,11.25-1.65,11.64-4.66,1.55-11.16-33.76-7.86-29.88-31.72C338.14,229.19,350.75,223.27,363.84,223.27Z"/><path class="cls-3" d="M462.2,156.29A123.23,123.23,0,0,1,417.85,251c-2.5,2.09-2.44,5.21,0,6s5.25-1.45,7.11-3.08A144.48,144.48,0,0,0,474.34,146C474.91,66.06,409.34.44,329.4,0,261.06-.37,212,44.87,195,87.2c-7.79,19.32,6.93,41.8,27.76,41.58,3.74-9.53,22.74-98.07,116.79-95.56C407.25,35,462.2,88.31,462.2,156.29"/><path class="cls-1" d="M260.3,111.46A16.69,16.69,0,1,1,277,128.15a16.68,16.68,0,0,1-16.68-16.69"/><path class="cls-4" d="M238.64,184.77a153.53,153.53,0,0,0,91.6,30.56c35.79.13,67.94-11.29,94.18-31.65,0,0,6-4.09,1.25-8-3.43-2.82-8.43.29-10.93,2a156,156,0,0,1-83.85,28.19,153.53,153.53,0,0,1-92.07-26.7s-2.7-2.34-3.5.73c-.5,1.94,3.33,4.84,3.33,4.84"/><path class="cls-5" d="M391.91,167.4c-17.66,9.82-37.17,17.08-58.5,19.69a155.7,155.7,0,0,1-94.7-18.91s-2.9-2.1-3.42,1c-.33,2,3.75,4.53,3.75,4.53a155.73,155.73,0,0,0,94.57,22.79,153.61,153.61,0,0,0,67.18-21.89,43.88,43.88,0,0,0,7.27-4.6,5.14,5.14,0,0,0-.26-8.08c-3.09-2.42-5.7-.64-7.77.46-.8.43-3.23,2.25-8.11,5"/><path class="cls-6" d="M374.25,153.57a158,158,0,0,1-40,14.42,154.72,154.72,0,0,1-95.67-10.51s-3.07-1.84-3.32,1.33c-.16,2,4.12,4.19,4.12,4.19a154.71,154.71,0,0,0,95.86,14.39,154,154,0,0,0,48.41-16.86s4.09-2.15,6.53-3.69c2.65-1.68,4.05-5,0-8.17-3.05-2.36-6.89,0-8.65.93-.71.36-4.56,2.58-7.26,4"/><path class="cls-7" d="M355.77,140a149.73,149.73,0,0,1-22.59,8.94c-32.59,10-64.83,8.91-94.73-1.52,0,0-3.22-1.56-3.19,1.62,0,2,4.48,3.81,4.48,3.81,29.65,11.77,62.07,14.19,95.27,5.37a154.8,154.8,0,0,0,30-11.41s3.21-1.71,6.15-3.43c1.84-1.08,4.27-4.78.52-7.7-2.4-1.87-6.51-.75-7.79,0s-5.39,2.94-8.17,4.32"/><path class="cls-1" d="M330.61,129.85C299,142.53,269,144.57,238.32,136.68c0,0-3.34-1.28-3,1.88.19,2,4.78,3.42,4.78,3.42,30.53,9.24,60.81,8.53,93.15-3q7.06-2.53,13.72-5.66s4.48-2.14,5.46-2.66,5.24-3.88.62-7.45c-3.37-2.6-8.48.51-10,1.25-3.52,1.68-9.28,4.19-12.37,5.43"/></g></g></svg>